<svg xmlns="http://www.w3.org/2000/svg" viewBox="0 0 412.9 312.89"><defs><style>.cls-1{fill:#d4e4f6;}.cls-2{fill:#fff;}.cls-3{fill:#82b1ea;}.cls-4{fill:#bbb3d7;}.cls-11,.cls-12,.cls-13,.cls-16,.cls-5{fill:none;}.cls-10,.cls-11,.cls-12,.cls-13,.cls-14,.cls-15,.cls-5{stroke:#3666a5;}.cls-10,.cls-11,.cls-12,.cls-13,.cls-14,.cls-15,.cls-16,.cls-5{stroke-linecap:round;stroke-linejoin:round;}.cls-5{stroke-width:1.73px;}.cls-6{font-size:22.84px;}.cls-6,.cls-7{fill:#4d5c7f;font-family:QTVagaRound-Bold, QTVagaRound;font-weight:700;}.cls-7{font-size:26.15px;}.cls-8{fill:#4edbd8;}.cls-14,.cls-15,.cls-9{fill:#bbeaff;}.cls-10{fill:#f8c1c7;}.cls-10,.cls-11,.cls-14{stroke-width:1.66px;}.cls-12,.cls-15{stroke-width:1.74px;}.cls-13{stroke-width:1.73px;}.cls-16{stroke:#4edbd8;stroke-width:6.57px;}</style></defs><g id="kontur"><circle class="cls-1" cx="87.93" cy="90.28" r="83.58"/><circle class="cls-2" cx="88.27" cy="90.02" r="65.89"/><polygon class="cls-3" points="81.35 85.73 86.06 80.15 104.7 61.52 98.64 87.5 95.43 95.4 91.85 100.12 73.26 118.4 78.49 93.09 81.35 85.73"/><polygon class="cls-4" points="81.35 85.73 95.78 94.25 104.7 61.52 81.35 85.73"/><circle class="cls-5" cx="88.27" cy="90.02" r="83.76"/><circle class="cls-5" cx="88.27" cy="90.02" r="65.89"/><polygon class="cls-5" points="95.86 94.8 70.87 122.15 81.03 86.52 106.02 59.17 95.86 94.8"/><text class="cls-6" transform="translate(102.8 49.79) rotate(30.67)">N</text><text class="cls-7" transform="matrix(0.88, 0.47, -0.47, 0.88, 52.06, 138)">S</text><line class="cls-5" x1="38.08" y1="64" x2="52.43" y2="72.83"/><line class="cls-5" x1="121.41" y1="110.9" x2="135.75" y2="119.73"/></g><g id="farbe-2" data-name="farbe"><rect class="cls-4" x="173.56" y="179.7" width="9.85" height="30.32"/><rect class="cls-4" x="246.34" y="179.7" width="9.85" height="30.32"/><rect class="cls-4" x="246.34" y="30.06" width="9.85" height="44.36"/><rect class="cls-4" x="173.56" y="30.06" width="9.85" height="44.36"/><rect class="cls-4" x="116.85" y="106.32" width="9.85" height="89.8"/><polygon class="cls-8" points="143.23 40.26 173.56 30.06 173.56 50.47 143.23 40.26"/><polygon class="cls-8" points="215.68 40.26 246.02 30.06 246.02 50.47 215.68 40.26"/><path class="cls-9" d="M116,121.63s-6.71,30-14.81,40.55a98.06,98.06,0,0,1-14.91,15.93l30,12.67Z"/><polygon class="cls-9" points="317.37 140.86 366.05 186.4 337.6 179.46 317.37 140.86"/></g><g id="kontur-2" data-name="kontur"><path class="cls-10" d="M78.31,196.12H132.8a16.72,16.72,0,0,1,11.63,4.71l10.45,10.1H265.14v-2.42A12.9,12.9,0,0,1,278,195.61h98.39L309,255.38a32.34,32.34,0,0,1-21.42,8.13H128.27a32.31,32.31,0,0,1-29.73-19.68Z"/><polyline class="cls-11" points="183.41 74.54 183.41 30.06 173.56 30.06 173.56 73.95"/><polyline class="cls-11" points="173.56 180.15 173.56 211.02 183.41 211.02 183.41 180.05"/><polygon class="cls-11" points="126.7 106.32 116.85 106.32 116.85 115.49 116.85 195.61 126.7 195.61 126.7 106.32"/><path class="cls-9" d="M199.45,179.7H143.23a89.45,89.45,0,0,0,0-105.14h56.22A89.45,89.45,0,0,1,199.45,179.7Z"/><path class="cls-12" d="M199.45,179.7H143.23a89.45,89.45,0,0,0,0-105.14h56.22A89.45,89.45,0,0,1,199.45,179.7Z"/><path class="cls-9" d="M271.48,179.7H216.11a89.42,89.42,0,0,0,0-105.14h55.37A89.45,89.45,0,0,1,271.48,179.7Z"/><path class="cls-13" d="M271.48,179.7H216.11a89.42,89.42,0,0,0,0-105.14h55.37A89.45,89.45,0,0,1,271.48,179.7Z"/><path class="cls-11" d="M116.77,117.68s-7.31,46.54-30.46,60.43l30,12.67"/><line class="cls-11" x1="376.42" y1="195.61" x2="287.8" y2="112.46"/><polyline class="cls-11" points="315.76 139.02 337.6 179.46 366.05 186.4"/><polyline class="cls-11" points="173.56 30.06 142.56 40.27 173 50.47"/><polyline class="cls-11" points="246.35 30.06 215.35 40.27 245.78 50.47"/><line class="cls-11" x1="95.1" y1="224.57" x2="336.75" y2="224.57"/><circle class="cls-14" cx="105.14" cy="210.02" r="4.93"/><circle class="cls-14" cx="121.27" cy="210.02" r="4.93"/><circle class="cls-14" cx="183.39" cy="242.71" r="4.93"/><circle class="cls-14" cx="201.09" cy="242.71" r="4.93"/><circle class="cls-14" cx="218.78" cy="242.71" r="4.93"/><circle class="cls-14" cx="236.48" cy="242.71" r="4.93"/><circle class="cls-14" cx="254.18" cy="242.71" r="4.93"/><polyline class="cls-11" points="256.19 74.42 256.19 30.06 246.34 30.06 246.34 74.42"/><polyline class="cls-11" points="246.34 179.98 246.34 211.02 256.19 211.02 256.19 179.98"/><line class="cls-15" x1="161.83" y1="242.71" x2="173.56" y2="242.71"/><line class="cls-15" x1="105.14" y1="242.71" x2="149.15" y2="242.71"/><line class="cls-15" x1="265.62" y1="242.71" x2="277.35" y2="242.71"/><line class="cls-15" x1="285.92" y1="242.71" x2="314.39" y2="242.71"/></g><g id="kontur-3" data-name="kontur"><polyline class="cls-16" points="83 307.06 137.58 266.02 170.01 200.65 200.02 225.87 239.01 163.68 277.78 198.13 317.96 68.23 348.89 122.64 400.41 12.18"/><polyline class="cls-16" points="405.9 35.78 402.11 9.18 381.2 23.5"/></g></svg>