<svg xmlns="http://www.w3.org/2000/svg" viewBox="0 0 419.17 317.64"><defs><style>.cls-1{fill:#bbeaff;}.cls-1,.cls-19,.cls-20,.cls-21,.cls-22,.cls-23,.cls-3,.cls-5,.cls-6,.cls-7,.cls-8{stroke:#3666a5;}.cls-1,.cls-16,.cls-19,.cls-20,.cls-21,.cls-22,.cls-23,.cls-3,.cls-5,.cls-6,.cls-7,.cls-8{stroke-linecap:round;stroke-linejoin:round;}.cls-1,.cls-3{stroke-width:1.92px;}.cls-2{fill:#f9ea98;}.cls-16,.cls-19,.cls-21,.cls-22,.cls-23,.cls-3,.cls-5,.cls-6,.cls-7,.cls-8{fill:none;}.cls-20,.cls-4{fill:#3666a5;}.cls-6,.cls-7,.cls-8{stroke-width:1.5px;}.cls-7{stroke-dasharray:3.5 3.5;}.cls-8{stroke-dasharray:3;}.cls-9{fill:#82b1ea;}.cls-10,.cls-18{fill:#fff;}.cls-11{fill:#968fc2;}.cls-12{fill:#daa5bc;}.cls-13{fill:#86e6e4;}.cls-14{fill:#ffdad2;}.cls-15{fill:#d99fa2;}.cls-16{stroke:#82b1ea;stroke-width:3.11px;}.cls-17{fill:#d4e4f6;}.cls-18{stroke:#b6d1f0;stroke-miterlimit:10;stroke-width:1.12px;}.cls-19,.cls-20{stroke-width:1.05px;}.cls-21{stroke-width:2.01px;}.cls-22{stroke-width:1.37px;}.cls-23{stroke-width:1.11px;}.cls-24{font-size:8.41px;}.cls-24,.cls-25{fill:#4d5c7f;font-family:QTVagaRound-Bold, QTVagaRound;font-weight:700;}.cls-25{font-size:9.63px;}</style></defs><g id="farbe-2" data-name="farbe"><circle class="cls-1" cx="342.65" cy="48.27" r="44.04"/><circle class="cls-1" cx="78.55" cy="75.29" r="44.04"/><circle class="cls-1" cx="124" cy="128.73" r="10.69"/><circle class="cls-1" cx="146.11" cy="147.77" r="6.77"/><circle class="cls-1" cx="295.96" cy="103.86" r="10.69"/><circle class="cls-1" cx="273.85" cy="122.9" r="6.77"/></g><g id="kontur-2" data-name="kontur"><path class="cls-2" d="M53.78,58.45S56.09,53.16,61.1,54s5,5,5,5l2.55,1,34-.08.07,34.6-43.53.23s-5-1.92-5.16-6S53.78,58.45,53.78,58.45Z"/><polyline class="cls-3" points="60.51 94.72 102.73 94.72 102.73 59.97 66.28 59.97"/><path class="cls-3" d="M60.34,94.72a5.94,5.94,0,1,1,5.93-5.94V60A5.94,5.94,0,0,0,54.4,60V88.78"/><rect class="cls-4" x="93.6" y="62.88" width="1.72" height="7.06" transform="translate(208.2 46.58) rotate(135)"/><rect class="cls-4" x="93.6" y="62.88" width="1.72" height="7.06" transform="translate(114.29 180.16) rotate(-135)"/><rect class="cls-4" x="72.45" y="72.2" width="1.72" height="7.06" transform="translate(178.69 77.45) rotate(135)"/><rect class="cls-4" x="72.45" y="72.2" width="1.72" height="7.06" transform="translate(71.59 181.11) rotate(-135)"/><rect class="cls-5" x="86.41" y="87.05" width="6.4" height="3.58"/><rect class="cls-5" x="92.81" y="87.05" width="3.46" height="3.58"/><path class="cls-5" d="M96.26,86.66l-2.49-2.39A1.63,1.63,0,0,1,96.46,84,1.82,1.82,0,0,1,96.26,86.66Z"/><path class="cls-5" d="M93.77,84.27H87.6s-.21-1,1.5-1.2h5.82a2.5,2.5,0,0,1,1,.48"/><line class="cls-5" x1="87.67" y1="84.33" x2="90.28" y2="86.83"/><path class="cls-6" d="M89,66.79s-.49-.34-1.28-.79"/><path class="cls-7" d="M84.58,64.44c-2.44-1-5.29-1.59-6.86.07s-.54,2.95.07,4.58"/><path class="cls-6" d="M78.14,70.8a4,4,0,0,1-.26,1.47"/><path class="cls-8" d="M72.78,80.11s-2.88,7.55,1.7,8.73,5.65-17.53,14.81-14.46c0,0,3.53.61,3.52,6.15"/></g><g id="farbe-3" data-name="farbe"><circle class="cls-9" cx="343.28" cy="47.63" r="30.77"/><circle class="cls-10" cx="343.4" cy="47.53" r="24.26"/><polygon class="cls-11" points="340.85 45.95 342.59 43.9 349.45 37.04 347.22 46.6 346.04 49.51 344.72 51.25 337.87 57.98 339.8 48.66 340.85 45.95"/><polygon class="cls-12" points="341.27 46.47 346.17 49.09 349.21 37.58 341.27 46.47"/></g><g id="kontur-3" data-name="kontur"><path class="cls-13" d="M162.24,182.71h25.24l50.54.35s22.18-1.65,28.56,1.18,13,10.39,13,10.39l23.36,37.29s13.93,29.27,15.35,40.6-2.13,15.58-2.84,16.76a26.93,26.93,0,0,1-7.55,7.78,52.22,52.22,0,0,1-13.22,5.67c-2.36.47-14.63,1.89-14.63,1.89L126.85,303.2s-23.26-4.74-26-22.42c0,0,.23-15.58,5.66-26.91s27.85-52.4,27.85-52.4,7.32-11.32,11.8-12.74,4.25-3.54,9.44-4.72a67.32,67.32,0,0,1,12.28-1.18"/><path class="cls-14" d="M187.3,169.39l.18,13.32,22.41,14,23.26-14.15L232.88,168s6.93-7.21,8.43-13.34a9.94,9.94,0,0,0,5.17,1.64,5.49,5.49,0,0,0,4.35-2.32s.82-.4,1.23-2.72,1.9-9.93,1.9-9.93.27-4.08-1.22-4.76-.68-2.45-3.68-1.9a13.26,13.26,0,0,0-5,2l-.68-14.56-8.43-13.06-54.69-.4-2.58,11-1.91,10.89.27,7.61a2.16,2.16,0,0,0-1.36-2.17c-1.49-.55-3.67-.95-5.17.13s-3.26,2.59-3.12,3.81.81,6.94.81,6.94,0,6.39,1.23,7.62,2.31,3.26,5,2.58a27.24,27.24,0,0,0,5.3-2S183,166.53,187.3,169.39Z"/><path class="cls-15" d="M176.67,130c.19-.56,1.42-3.11,3-4a26.77,26.77,0,0,1,5-1.6l1.42-1.14v-8.6s13.33,3.21,23.82,3.12,15.41-1.23,15.79-1.32l9.17-2.18.19,8.79s4.06,1,5.67,3.31a31.89,31.89,0,0,1,2.65,4.82l1.41-11.43s-2.08-19.67-14.37-26.66-20.51-7-20.51-7-10.4,2.08-11.16,2-4.44,2.07-6.8,3.11-8.7,8.23-8.7,8.23-4.92,5.67-5.2,6.43-3,11.25-2.93,13.14S176.67,130,176.67,130Z"/><path class="cls-3" d="M209.93,177.47h0a33.06,33.06,0,0,1-33-31.18l-1.36-23.91A34.42,34.42,0,0,1,209.93,86h0a34.42,34.42,0,0,1,34.36,36.37l-1.36,23.91A33,33,0,0,1,209.93,177.47Z"/><line class="cls-3" x1="232.32" y1="182.71" x2="257.56" y2="182.71"/><path class="cls-3" d="M243.54,133.75c0-8.1-8.23-10.22-8.23-10.22V114s-7.58,3.51-25.38,3.51c-16.37,0-24.24-3.51-24.24-3.51v9.51s-9.92,1-9.39,10.33"/><path class="cls-3" d="M244.24,136.47a5.79,5.79,0,0,1,4.81-1.47h0a5.8,5.8,0,0,1,4.81,6.61l-1.51,10.11a5.8,5.8,0,0,1-6.6,4.81h0a6.56,6.56,0,0,1-3.24-1.59"/><path class="cls-3" d="M176,137.08a5.74,5.74,0,0,0-4.81-1.47h0a5.79,5.79,0,0,0-4.81,6.6l1.51,10.11a5.79,5.79,0,0,0,6.6,4.81h0a6.55,6.55,0,0,0,3.24-1.58"/><polyline class="cls-3" points="187.06 169.26 187.06 182.71 209.93 196.74 232.8 182.71 232.8 169.26"/><circle class="cls-4" cx="196.65" cy="143.38" r="3.09"/><circle class="cls-4" cx="223.37" cy="143.38" r="3.09"/><path class="cls-3" d="M217.49,133.05s5.93-5.83,11.76,0"/><path class="cls-3" d="M202.53,133.25s-5.93-5.83-11.76,0"/><line class="cls-3" x1="207.03" y1="165.69" x2="212.81" y2="165.69"/><polyline class="cls-3" points="205.41 138.46 205.41 154.06 214.05 154.06"/><path class="cls-3" d="M257.56,182.71h0c12.47.8,21.46,8.45,30.68,24,0,0,31.48,50,30.35,72.62s-31.09,24.58-31.09,24.58"/><polyline class="cls-3" points="209.93 196.74 218.42 204.26 250.34 182.71"/><path class="cls-3" d="M130.46,303.41s-28.12-1.51-29.25-24.12,30.35-72.62,30.35-72.62c9.22-15.51,18.21-23.16,30.68-24h24.81"/><polyline class="cls-3" points="209.87 196.74 201.38 204.26 169.47 182.71"/><path class="cls-3" d="M201.67,159.22s1.81,3,7.85,3,8.15-2.12,8.45-2.87"/><path class="cls-10" d="M204.88,67.31c.26.39,17.73.26,22.65,3.24a31,31,0,0,1,9.19,8,28.17,28.17,0,0,1,3.5,6.22l7.76.13-5.56,22.65-64.34.26-6-22.78,6.6-.52s6.86-11.13,13.46-13.21S204.88,67.31,204.88,67.31Z"/><line class="cls-16" x1="174.9" y1="88.96" x2="245.91" y2="88.96"/><line class="cls-16" x1="177.21" y1="102.71" x2="241.9" y2="102.72"/><path class="cls-17" d="M118.74,206.35s2.64-4.81,6.81-4.81h164s5.22,1.06,6.87,4,2.54,3.88,2.3,6.55-1.34,12.44-1.34,12.44l-8.29,71.71a8,8,0,0,1-2.57,4.22,7.94,7.94,0,0,0-2.59,3.11s4.37,1.48,4.76,5.36a4.58,4.58,0,0,1-3.21,4.91l-10.87.45H129.89s-4.12-2.62-4.12-5.36,4.06-5.1,4.06-5.1l3.44-.84s-5.52-2.28-6.33-6-9.9-85.53-9.9-85.53Z"/><path class="cls-18" d="M179.93,269a.53.53,0,0,0,.34.28c6.2,1.71,9.75.63,11,.09,3.4,5.41,9.64,5.23,9.91,5.22a.56.56,0,0,0,.51-.4c1.91-6.92-3.89-11.85-5.39-13,2.66-7.7,13-9.18,14.13-9.14,3.08-.07,3.17-.69,15.33,5.66,3.85,2,7.35,3.29,8.59.3a4.61,4.61,0,0,0,.23-2.89c1.46-15.33-14.68-20.59-17-21.27-1.89-4.52-4.61-6.35-7-7a9.33,9.33,0,0,0-5.18.07.56.56,0,0,0-.33.7l2.45,7.1c-4.73,1.28-8.81,5.87-12.14,13.68a67.59,67.59,0,0,0-3.59,11.25c-3.3-.69-6.37.58-8.92,3.7a19.25,19.25,0,0,0-3,5.2A.52.52,0,0,0,179.93,269Z"/><line class="cls-19" x1="208.2" y1="94.12" x2="211.1" y2="94.12"/><line class="cls-19" x1="209.65" y1="100.02" x2="209.65" y2="93.05"/><path class="cls-19" d="M213.2,96.66a3.55,3.55,0,1,1-7.1,0"/><polyline class="cls-19" points="206.93 97.1 206.1 96.22 205.27 97.1"/><polyline class="cls-19" points="214.03 97.14 213.2 96.26 212.37 97.14"/><circle class="cls-20" cx="209.65" cy="92.24" r="0.77"/><polygon class="cls-21" points="248.22 84.3 172.11 84.3 177.69 107.24 242.63 107.24 248.22 84.3"/><path class="cls-21" d="M179.11,84.3s4.4-17,31-17c25.59,0,30.6,17,30.6,17"/><path class="cls-3" d="M288.83,201.14H128.2a10.54,10.54,0,0,0-10.47,11.72l9.14,80.95a10.53,10.53,0,0,0,10.47,9.35H279.7a10.52,10.52,0,0,0,10.46-9.35l9.14-80.95A10.53,10.53,0,0,0,288.83,201.14Z"/><rect class="cls-3" x="126.39" y="303.16" width="162.94" height="10.72" rx="5.36"/><circle class="cls-22" cx="343.4" cy="47.53" r="30.84"/><circle class="cls-22" cx="343.4" cy="47.53" r="24.26"/><polygon class="cls-23" points="346.19 49.29 336.99 59.36 340.74 46.24 349.94 36.17 346.19 49.29"/><text class="cls-24" transform="translate(348.77 32.73) rotate(30.67)">N</text><text class="cls-25" transform="matrix(0.88, 0.47, -0.47, 0.88, 330.1, 65.22)">S</text><line class="cls-22" x1="324.92" y1="37.95" x2="330.21" y2="41.2"/><line class="cls-22" x1="355.6" y1="55.22" x2="360.88" y2="58.47"/></g></svg>