<svg xmlns="http://www.w3.org/2000/svg" viewBox="0 0 389.93 295.48"><defs><style>.cls-1{fill:#ffdad2;}.cls-2{fill:#968fc2;}.cls-3{fill:#f99cb2;}.cls-4{fill:#f99fbe;}.cls-5{fill:#66bdf1;}.cls-10,.cls-6,.cls-9{fill:none;stroke:#3666a5;stroke-linecap:round;stroke-linejoin:round;}.cls-6{stroke-width:2.13px;}.cls-7{fill:#3666a5;}.cls-8{fill:#f9ea98;}.cls-9{stroke-width:2.39px;}.cls-10{stroke-width:1.87px;}</style></defs><g id="kontur-2" data-name="kontur"><path class="cls-1" d="M170.94,124.3v23.29l25.18,15.19,24.71-15.52V122.77s5.82-4.12,7.31-7,3.29-10.16,3.29-10.16l6.12,1.35a16,16,0,0,0,4.18-6.57c1.05-3.74,1.35-10.9,1.35-10.9s-1.79-5.08-4.33-5.53-6.57,1.79-6.57,1.79l.3-13.59L224.71,53.1l-63.61-.45-1.94,31.66s-4.33-1.2-6.87.15-3.29,1.94-3.44,4.33a62.13,62.13,0,0,0,.15,7.76c.15,1.35.3,7.77,3.44,9.26a11.1,11.1,0,0,0,6,1l2.69-1.35S164.5,119.94,170.94,124.3Z"/><path class="cls-2" d="M159.19,82.89s-.59-5.6,4-7.51A52,52,0,0,1,169.51,73l.14-15.91,53.79.29.44,15.77s3.53.44,5.45,2.8a43,43,0,0,1,3.68,5.6s3.54-13,4.28-22.69S233.6,43,233.16,42.67s-7.07-1.18-7.07-1.18l-3.24.74s-3.25-9.58-8.55-11A41.23,41.23,0,0,0,203,30s-10.9,1.18-11.49,1.32-17.24,4.87-17.24,4.87-2.65-1.33-3.24-2.95a74.53,74.53,0,0,1-1.47-8s-4.57,4.57-5.45,5.31-8.26,11.05-9,16.06-1.33,14-.89,15.91,3.1,16.65,3.1,16.65Z"/><path class="cls-2" d="M183.18,111.55l25.75.16s-2.58,6.81-5.45,8.78-7.12,3-8.94,2.73S183.78,116.86,183.18,111.55Z"/><path class="cls-3" d="M187.8,119a12.65,12.65,0,0,1,8.44-2.82,14.91,14.91,0,0,1,8.75,2.92,17.43,17.43,0,0,1-9.58,3.34C189.68,122.61,187.8,119,187.8,119Z"/><path class="cls-4" d="M135.09,145.63s10-4.22,17.84-4.22,16.87.19,16.87.19l1.14,6,25.18,15.19,24.71-15.52-.41-4.7s5.75-2.87,10.55-2.68,12.27.77,13.61,1.15,11.51,4.41,11.51,4.41-5.56,5.94-9.59,7.86-35.47,8.82-46.79,9.59S164.24,160,164.24,160s-17.45-5.37-19-6.52S135.09,145.63,135.09,145.63Z"/><path class="cls-5" d="M63.21,137.37s6-19.84,8.75-26S84.62,85.29,84.62,85.29L109,92.47,98.58,128.75l-2.87,6.4s15.66-.91,20.88.91,13.84,5.75,13.84,5.75,8.35,7.57,9,7.83,13.18,6.78,17.62,7.7,23.89,4.57,24.54,4.57,36.41.52,41.5-.79,25.45-9,25.45-9L261.33,143s11.49-5.35,16.58-6.26,14.62-.79,14.62-.79h3.65l-10.44-32-2.48-11.88,23-7s14.36,27.54,17.75,36.68,6,24.4,6.92,28.45,1.56,11.22-.66,14-9.78,8.23-11.87,9.79-19.58,10.31-19.58,10.31l-37.33,14.1-10.7,64.21-5.61,27.8-99.41-.88L129.6,198.07,97.33,186S61.75,174.74,60,159.77A57.18,57.18,0,0,1,63.21,137.37Z"/><polygon class="cls-4" points="261.46 198.32 279.32 193.32 312.1 289.3 245.15 290.33 261.46 198.32"/><polygon class="cls-4" points="112.3 192.72 129.6 198.07 145.74 289.45 80.29 289.57 112.3 192.72"/><path class="cls-1" d="M105.71,91.26l2.8-8.1,6.62-5.44a3.56,3.56,0,0,0,4.57,1.76c3.38-1,6-4.85,6-4.85l2.8-3.39s.29-3.09-.74-3.53-3.24-1.62-3.24-1.62,3.54-7.07-2.35-12.22-11.78-2.8-11.78-2.8-3.68,2.06-4.41,2.36S91.73,66.68,91.73,66.68s-2.36,5.59-1.33,9.71-1.18,5-1.18,5l-.73,4.27Z"/><path class="cls-1" d="M285.51,91.26l-2.8-8.1-6.62-5.44a3.56,3.56,0,0,1-4.57,1.76c-3.38-1-6-4.85-6-4.85l-2.8-3.39s-.29-3.09.74-3.53,3.24-1.62,3.24-1.62S263.13,59,269,53.87s11.78-2.8,11.78-2.8,3.68,2.06,4.41,2.36,14.28,13.25,14.28,13.25,2.36,5.59,1.33,9.71,1.18,5,1.18,5l.73,4.27Z"/><path class="cls-4" d="M163.3,187.17h67.19s5.06,1.9,6,4.59,0,6.79,0,6.79l-3,4.11L201.87,246.3a9.17,9.17,0,0,1-6.16,2.37c-4.11.16-6.8-3.79-6.8-3.79l-33.2-46s-2.53-6.64,1.26-9.17S163.3,187.17,163.3,187.17Z"/><polyline class="cls-6" points="170.94 124.3 170.94 147.59 195.78 162.44 220.62 147.59 220.62 124.3"/><path class="cls-6" d="M232.57,84.14l-.9,15.8a35.9,35.9,0,0,1-35.84,33.86h0A35.91,35.91,0,0,1,160,99.94l-.89-15.8"/><path class="cls-6" d="M232.57,85.3a6.25,6.25,0,0,1,5.23-1.6h0A6.3,6.3,0,0,1,243,90.87l-1.64,11a6.29,6.29,0,0,1-7.17,5.21h0a4.14,4.14,0,0,1-2.66-1.29"/><path class="cls-6" d="M159,85.3a6.26,6.26,0,0,0-5.23-1.6h0a6.29,6.29,0,0,0-5.22,7.17l1.64,11a6.29,6.29,0,0,0,7.17,5.21h0a7,7,0,0,0,3.51-1.72"/><circle class="cls-7" cx="181.41" cy="86.31" r="3.36"/><circle class="cls-7" cx="210.42" cy="86.31" r="3.36"/><path class="cls-6" d="M204,78.11s6.44-6.33,12.77,0"/><path class="cls-6" d="M187.79,78.11s-6.44-6.33-12.77,0"/><polyline class="cls-6" points="190.93 87.09 190.93 104.04 200.3 104.04"/><path class="cls-6" d="M183.43,111.3h25.7s-1.32,11.33-12.85,11.33S183.43,111.3,183.43,111.3Z"/><path class="cls-6" d="M187.84,118.8a15,15,0,0,1,17,0"/><path class="cls-6" d="M158.17,82.92s-5.36-26.93.92-40.5S169.74,25.8,169.74,25.8s-.14,9.65,4.11,10.46,42.35-18.42,48.83,5.48c0,0,8.39-2.55,11.43,8.79s-1.54,33.61-1.54,33.61c0-9.65-9.18-11-9.18-11V57.35H169.51V73.1s-11,.88-10.42,11"/><path class="cls-6" d="M170.71,141.74s-22.25-2.86-36.19,4.26c0,0-12.63-14.15-38.93-10.3,0,0,9.51-26.44,13.77-43.49L84.77,84.67S58.3,133.54,59.85,159.78c1,16.72,69.79,38.11,69.79,38.11l0,.06,16.54,92h99.28L262,198s68.81-21.39,69.8-38.11c1.54-26.24-24.93-75.12-24.93-75.12l-24.59,7.55c4.26,17,13.77,43.49,13.77,43.49-24.18-3.16-38.93,10.3-38.93,10.3-16.9-8.94-36.19-4.26-36.19-4.26"/><path class="cls-6" d="M134.52,146s17.33,16.35,61.26,16.82"/><path class="cls-6" d="M256.89,146s-17.32,16.35-61.25,16.82"/><rect class="cls-6" x="95.78" y="47.83" width="23.71" height="40.3" rx="11.86" transform="translate(84.21 -57.15) rotate(47.12)"/><path class="cls-6" d="M125.37,66.32a3.92,3.92,0,0,1,2.19,1.24h0a4.27,4.27,0,0,1-.22,6l-5.46,5.07a4.26,4.26,0,0,1-6-.23h0c-.53-.57-.61-.47-.77-1.18"/><line class="cls-6" x1="88.11" y1="85.39" x2="90.71" y2="77.92"/><line class="cls-6" x1="105.91" y1="90.5" x2="108.68" y2="83.41"/><rect class="cls-6" x="271.79" y="47.83" width="23.71" height="40.3" rx="11.86" transform="translate(526.47 -93.61) rotate(132.88)"/><path class="cls-6" d="M265.91,66.32a3.92,3.92,0,0,0-2.19,1.24h0a4.27,4.27,0,0,0,.22,6l5.46,5.07a4.26,4.26,0,0,0,6-.23h0c.53-.57.61-.47.77-1.18"/><line class="cls-6" x1="303.16" y1="85.39" x2="300.57" y2="77.92"/><line class="cls-6" x1="285.37" y1="90.5" x2="282.6" y2="83.41"/><path class="cls-6" d="M202.81,244.85l32.29-44.61a8.59,8.59,0,0,0-7-13.63H163.57a8.59,8.59,0,0,0-7,13.63l32.28,44.61A8.59,8.59,0,0,0,202.81,244.85Z"/><line class="cls-6" x1="214.55" y1="157.07" x2="235.11" y2="148.83"/><line class="cls-6" x1="178.05" y1="157.07" x2="157.49" y2="148.83"/><polyline class="cls-6" points="112.54 192.01 79.96 289.92 146.14 289.92"/><polyline class="cls-6" points="279.5 192.01 312.09 289.92 245.9 289.92"/><path class="cls-6" d="M95.72,153.94s7.53,17.59,32,9.74"/><path class="cls-6" d="M296.05,153.94s-7.54,17.59-32,9.74"/><path class="cls-7" d="M214.77,215.29l-3.42-3.63a1.27,1.27,0,0,0-.91-.4,1.24,1.24,0,0,0-.91.4l-3.42,3.63a1.25,1.25,0,1,0,1.82,1.72l1.15-1.23a13.41,13.41,0,0,1-12,11.73V205h4.73a1.25,1.25,0,0,0,0-2.5H197v-2.28a4.45,4.45,0,1,0-2.5,0v2.28h-4.73a1.25,1.25,0,0,0,0,2.5h4.73v22.55a13.41,13.41,0,0,1-12.07-11.92l1.18,1.26a1.25,1.25,0,1,0,1.82-1.72l-3.42-3.63a1.29,1.29,0,0,0-1.82,0l-3.42,3.63a1.26,1.26,0,0,0,.05,1.77,1.23,1.23,0,0,0,.86.34,1.26,1.26,0,0,0,.91-.39l1.33-1.41a15.89,15.89,0,0,0,31.66.15L213,217a1.26,1.26,0,0,0,.91.39,1.23,1.23,0,0,0,.86-.34A1.26,1.26,0,0,0,214.77,215.29Zm-20.93-19.36a2,2,0,1,1,1.95,1.95A2,2,0,0,1,193.84,195.93Z"/></g><g id="kontur-3" data-name="kontur"><path class="cls-7" d="M154.81,53.11,148.15,63.8s4.64,2.92,13.44,5c5.95,1.38,14,1.8,19.25,2.6a102.18,102.18,0,0,0,14,.9c22.43.35,30-2.71,30-2.71l16.65-7.53-5.43-8.94Z"/><path class="cls-5" d="M155.29,43h80.78l14.55-27.86a132.16,132.16,0,0,0-47.14-8.06c-25.94.53-31.89,1.23-31.89,1.23l-14.72,1.92-18.4,4.21Z"/><rect class="cls-8" x="155.06" y="42.42" width="80.77" height="10.57"/><path class="cls-9" d="M155,52.93h81.2V42.83H155S154.8,53.17,155,52.93Z"/><path class="cls-9" d="M155,42.83l-16.46-27.9S152.78,7,195.35,7s55.8,8.42,55.8,8.42L236.24,42.83Z"/><path class="cls-9" d="M154.37,54.26l-6.07,8.82s3.25,3.12,13.24,5.73c0,0,23.39,3.47,33.22,3.48,36.86.06,46.86-10.19,46.86-10.19l-5.38-9.17"/><line class="cls-10" x1="190.88" y1="19.14" x2="199.25" y2="19.14"/><line class="cls-10" x1="195.06" y1="36.16" x2="195.06" y2="16.03"/><path class="cls-10" d="M205.31,26.46a10.25,10.25,0,0,1-20.49,0"/><polyline class="cls-10" points="187.22 27.73 184.82 25.19 182.43 27.73"/><polyline class="cls-10" points="207.7 27.84 205.31 25.3 202.91 27.84"/><circle class="cls-10" cx="195.06" cy="13.7" r="2.23"/></g></svg>