<svg xmlns="http://www.w3.org/2000/svg" viewBox="0 0 499.25 360.5"><defs><style>.cls-1{fill:#fff;}.cls-2{fill:#d4e4f6;}.cls-3{fill:#82b1ea;}.cls-4{fill:#bbb3d7;}.cls-11,.cls-12,.cls-13,.cls-16,.cls-5{fill:none;}.cls-10,.cls-11,.cls-12,.cls-13,.cls-14,.cls-15,.cls-16,.cls-5{stroke:#3666a5;stroke-linecap:round;stroke-linejoin:round;}.cls-5{stroke-width:1.58px;}.cls-6{font-size:20.95px;}.cls-6,.cls-7{fill:#4d5c7f;font-family:QTVagaRound-Bold, QTVagaRound;font-weight:700;}.cls-7{font-size:23.98px;}.cls-8{fill:#4edbd8;}.cls-14,.cls-15,.cls-9{fill:#bbeaff;}.cls-10{fill:#f8c1c7;}.cls-10,.cls-11,.cls-14{stroke-width:1.37px;}.cls-12,.cls-15{stroke-width:1.44px;}.cls-13{stroke-width:1.43px;}.cls-16{stroke-width:2.21px;}</style></defs><g id="Ebene_10" data-name="Ebene 10"><circle class="cls-1" cx="414.55" cy="236.01" r="42.52"/><circle class="cls-1" cx="346.22" cy="247.22" r="42.52"/><circle class="cls-1" cx="278.8" cy="258.14" r="42.52"/><circle class="cls-1" cx="218.86" cy="247.22" r="42.52"/><circle class="cls-2" cx="399.49" cy="77.84" r="76.64"/><circle class="cls-1" cx="399.79" cy="77.61" r="60.42"/><polygon class="cls-3" points="393.45 73.67 397.77 68.55 414.86 51.46 409.3 75.29 406.36 82.53 403.08 86.86 386.03 103.63 390.83 80.42 393.45 73.67"/><polygon class="cls-4" points="393.45 73.67 406.69 81.48 414.86 51.46 393.45 73.67"/><circle class="cls-5" cx="399.79" cy="77.61" r="76.81"/><circle class="cls-5" cx="399.79" cy="77.61" r="60.42"/><polygon class="cls-5" points="406.75 81.98 383.83 107.06 393.16 74.39 416.07 49.31 406.75 81.98"/><text class="cls-6" transform="translate(413 40.61) rotate(30.67)">N</text><text class="cls-7" transform="matrix(0.88, 0.47, -0.47, 0.88, 366.36, 121.4)">S</text><line class="cls-5" x1="353.77" y1="53.74" x2="366.93" y2="61.83"/><line class="cls-5" x1="430.18" y1="96.75" x2="443.34" y2="104.84"/><rect class="cls-4" x="275.45" y="210.1" width="8.15" height="25.08"/><rect class="cls-4" x="335.65" y="210.1" width="8.15" height="25.08"/><rect class="cls-4" x="335.65" y="86.32" width="8.15" height="36.69"/><rect class="cls-4" x="275.45" y="86.32" width="8.15" height="36.69"/><rect class="cls-4" x="228.54" y="149.4" width="8.15" height="74.29"/><polygon class="cls-8" points="250.36 94.76 275.45 86.32 275.45 103.2 250.36 94.76"/><polygon class="cls-8" points="310.3 94.76 335.39 86.32 335.39 103.2 310.3 94.76"/><path class="cls-9" d="M227.86,162.07s-5.55,24.83-12.25,33.54a81.23,81.23,0,0,1-12.33,13.18l24.83,10.48Z"/><polygon class="cls-9" points="394.41 177.97 434.68 215.64 411.15 209.9 394.41 177.97"/><path class="cls-10" d="M196.66,223.69h45.07a13.82,13.82,0,0,1,9.62,3.89l8.65,8.35h91.21v-2a10.66,10.66,0,0,1,10.66-10.66h81.39L387.51,272.7a26.71,26.71,0,0,1-17.73,6.73H238a26.7,26.7,0,0,1-24.59-16.28Z"/><polyline class="cls-11" points="283.6 123.11 283.6 86.32 275.45 86.32 275.45 122.62"/><polyline class="cls-11" points="275.45 210.47 275.45 236.01 283.6 236.01 283.6 210.39"/><polygon class="cls-11" points="236.69 149.4 228.54 149.4 228.54 156.99 228.54 223.27 236.69 223.27 236.69 149.4"/><path class="cls-9" d="M296.87,210.1H250.36a74,74,0,0,0,0-87h46.51A74,74,0,0,1,296.87,210.1Z"/><path class="cls-12" d="M296.87,210.1H250.36a74,74,0,0,0,0-87h46.51A74,74,0,0,1,296.87,210.1Z"/><path class="cls-9" d="M356.45,210.1h-45.8a74,74,0,0,0,0-87h45.8A74,74,0,0,1,356.45,210.1Z"/><path class="cls-13" d="M356.45,210.1h-45.8a74,74,0,0,0,0-87h45.8A74,74,0,0,1,356.45,210.1Z"/><path class="cls-11" d="M228.47,158.8s-6,38.5-25.19,50l24.79,10.48"/><line class="cls-11" x1="443.26" y1="223.27" x2="369.95" y2="154.48"/><polyline class="cls-11" points="393.08 176.45 411.15 209.9 434.68 215.64"/><polyline class="cls-11" points="275.45 86.32 249.81 94.76 274.99 103.2"/><polyline class="cls-11" points="335.66 86.32 310.02 94.76 335.19 103.2"/><line class="cls-11" x1="210.55" y1="247.22" x2="410.44" y2="247.22"/><circle class="cls-14" cx="218.86" cy="235.18" r="4.08"/><circle class="cls-14" cx="232.19" cy="235.18" r="4.08"/><circle class="cls-14" cx="283.58" cy="262.22" r="4.08"/><circle class="cls-14" cx="298.22" cy="262.22" r="4.08"/><circle class="cls-14" cx="312.86" cy="262.22" r="4.08"/><circle class="cls-14" cx="327.5" cy="262.22" r="4.08"/><circle class="cls-14" cx="342.14" cy="262.22" r="4.08"/><polyline class="cls-11" points="343.8 123.01 343.8 86.32 335.65 86.32 335.65 123.01"/><polyline class="cls-11" points="335.65 210.33 335.65 236.01 343.8 236.01 343.8 210.33"/><line class="cls-15" x1="265.75" y1="262.22" x2="275.45" y2="262.22"/><line class="cls-15" x1="218.86" y1="262.22" x2="255.26" y2="262.22"/><line class="cls-15" x1="351.6" y1="262.22" x2="361.31" y2="262.22"/><line class="cls-15" x1="368.4" y1="262.22" x2="391.95" y2="262.22"/><ellipse class="cls-1" cx="310.65" cy="317.97" rx="73.97" ry="42.52"/><circle class="cls-1" cx="388.74" cy="304.75" r="38.84"/><ellipse class="cls-1" cx="443.26" cy="283.41" rx="55.99" ry="36.19"/><ellipse class="cls-1" cx="172.47" cy="283.41" rx="54.73" ry="42.52"/><ellipse class="cls-1" cx="227.2" cy="315.58" rx="46.78" ry="42.52"/><path class="cls-16" d="M206.72,164.19s-55.11,38-119.88-31.14"/><path class="cls-16" d="M157.87,227.49S82.75,190.67,15.8,231.1"/><path class="cls-16" d="M1.1,125.39s29.63,63.48,150.51,70.66"/></g></svg>