<svg xmlns="http://www.w3.org/2000/svg" viewBox="0 0 415.53 314.88"><defs><style>.cls-1{fill:#bbeaff;}.cls-1,.cls-10,.cls-12,.cls-13,.cls-15,.cls-16,.cls-17,.cls-18,.cls-4,.cls-9{stroke:#3666a5;}.cls-1,.cls-10,.cls-12,.cls-13,.cls-15,.cls-16,.cls-17,.cls-18,.cls-9{stroke-linecap:round;stroke-linejoin:round;}.cls-1,.cls-4,.cls-9{stroke-width:1.92px;}.cls-2{fill:#86e6e4;}.cls-3{fill:#ffdad2;}.cls-4{fill:#d99fa2;stroke-miterlimit:10;}.cls-5{fill:#968fc2;}.cls-6{fill:#989898;}.cls-7{fill:#7fd8f0;}.cls-8{fill:#fff;}.cls-10,.cls-12,.cls-13,.cls-15,.cls-16,.cls-17,.cls-18,.cls-9{fill:none;}.cls-10{stroke-width:0.5px;}.cls-11{fill:#3666a5;}.cls-12{stroke-width:2.51px;}.cls-13{stroke-width:1.28px;}.cls-14{fill:#f9ea98;}.cls-16,.cls-17,.cls-18{stroke-width:1.5px;}.cls-17{stroke-dasharray:3.5 3.5;}.cls-18{stroke-dasharray:3;}.cls-19{fill:#d4e4f6;}</style></defs><g id="farbe-2" data-name="farbe"><circle class="cls-1" cx="353.54" cy="47.11" r="44.04"/></g><g id="kontur-2" data-name="kontur"><path class="cls-2" d="M153.67,261v51.27H275.82V207.71S274.6,189.8,261,185.5c0,0-4.28-3.05-14-2.1H224.25l-47.19-.18-1.65-.23-26-7.06-19.33,71.92a13.39,13.39,0,0,0,7.79,14.44C145.26,265.8,153.67,261,153.67,261Z"/><path class="cls-3" d="M155.82,177.26l16.06,4.36,2.19-5.35s2.8-2.71,3.21-4.29a36.89,36.89,0,0,1,2.29-5.16l.32,2.3.1,14.24,22.9,13.79,22-13.79-.13-21s6.65-6.47,8.15-12.62,1-3.52,1-3.52,6.88,3.69,8.8-1.69,2.22-13.4,2.22-13.4a5.58,5.58,0,0,0-5.55-5c-5.12-.13-4,2.43-4,2.43l-2-14.93-8.59-16.16-49.28,3.18-6.39,20.54.17,6.68s-.9-2.09-5.31-1.58-4.29,6.38-4.29,6.38l1.65,10.61a6.37,6.37,0,0,0,4.89,4.18l-.28.87-7.73,16.76a9.59,9.59,0,0,0-.34,4.6c.51,2.18-.11,2.29-.11,2.29Z"/><path class="cls-4" d="M169,123.21s3.37-5.06,4.18-5.13a23.42,23.42,0,0,0,3.31-1l2-2.12.47-12.69,48.36.13L227,117.09a6.81,6.81,0,0,1,5.13,1.8,17.49,17.49,0,0,1,3.44,5.54s.89-9.45-.47-16.78-11.33-23.73-25.4-25.06-18.28,1-18.28,1-10.23,3.34-16.38,12.06-6.34,16.8-6.34,16.8Z"/><polygon class="cls-5" points="207.86 118.35 207.01 119.9 207.43 121.13 209.46 121.38 223.76 121.38 224.55 119.54 223.42 118.29 207.86 118.35"/><circle class="cls-6" cx="186.64" cy="128.21" r="19.13"/><circle class="cls-6" cx="186.64" cy="128.21" r="15.05"/><circle class="cls-7" cx="186.64" cy="128.21" r="11.99"/><polygon class="cls-8" points="177.47 136.05 174.84 130.34 191.17 117.12 193.68 118.49 195.84 121.16 177.47 136.05"/><polygon class="cls-8" points="181.88 139.22 179.64 138.12 197.61 123.56 198.04 124.67 198.63 125.64 181.88 139.22"/><path class="cls-9" d="M168.71,118.81c-.83-13.26,5.18-25.95,16.93-32.64a34,34,0,0,1,40.71,5.68c8.9,9,10,20.13,9.27,32.06-.57,10,.14,21.21-4.69,30.29-8.74,16.44-30.3,22.19-46,12.13a23.11,23.11,0,0,1-3.68-2.79"/><path class="cls-9" d="M170.51,145.23a45.11,45.11,0,0,1-.67-5.91"/><line class="cls-9" x1="177.06" y1="183.4" x2="180.31" y2="183.4"/><polyline class="cls-9" points="250.95 226.66 250.95 312.29 153.67 312.29 153.67 261.02"/><line class="cls-9" x1="224.25" y1="183.4" x2="250.95" y2="183.4"/><path class="cls-10" d="M235.47,126.59c0-8.71-8.28-10-8.28-10V102.41H178.56v7.25"/><path class="cls-9" d="M235.46,127.63a5.67,5.67,0,0,1,4.72-1.44h0a5.67,5.67,0,0,1,4.71,6.47l-1.48,9.92a5.68,5.68,0,0,1-6.47,4.71h0a6.46,6.46,0,0,1-3.17-1.56"/><path class="cls-9" d="M166.42,126.25c-6.81-1.44-6.89,5.7-6.22,10.17s.66,10.7,6.59,11"/><polyline class="cls-9" points="179.89 166.43 179.89 183.4 202.31 197.15 224.73 183.4 224.73 162.38"/><circle class="cls-11" cx="215.48" cy="128.55" r="3.03"/><path class="cls-9" d="M209.72,127.86s5.81-5.71,11.52,0"/><path class="cls-9" d="M196,150.52l1.41.4a19.67,19.67,0,0,0,9.76,0l1.92-.49"/><line class="cls-9" x1="199.47" y1="155.94" x2="205.13" y2="155.94"/><line class="cls-9" x1="197.88" y1="144.55" x2="206.35" y2="144.55"/><path class="cls-9" d="M251,183.4h0a24.87,24.87,0,0,1,24.87,24.88v104H251"/><circle class="cls-12" cx="186.64" cy="128.21" r="19.65"/><circle class="cls-9" cx="186.64" cy="128.21" r="15.05"/><circle class="cls-13" cx="186.64" cy="128.21" r="11.99"/><rect class="cls-9" x="160.52" y="144.22" width="20.24" height="34.39" rx="10.12" transform="translate(81.53 -55.91) rotate(24.3)"/><path class="cls-9" d="M191.71,147.45s2.6.64,3.38,1.65h0a3.64,3.64,0,0,1-.65,5.09l-5,3.88a3.64,3.64,0,0,1-5.09-.66h0c-.41-.52-.49-.45-.57-1.06"/><path class="cls-9" d="M137.57,178.25h29.27a0,0,0,0,1,0,0v72.06a14.63,14.63,0,0,1-14.63,14.63h0a14.63,14.63,0,0,1-14.63-14.63V178.25a0,0,0,0,1,0,0Z" transform="translate(63.46 -32.16) rotate(15.21)"/><line class="cls-9" x1="155.82" y1="177.26" x2="158.16" y2="170.52"/><line class="cls-9" x1="171.88" y1="181.88" x2="174.38" y2="175.48"/><polyline class="cls-9" points="202.31 197.15 210.63 204.52 241.91 183.4"/><polyline class="cls-9" points="202.3 197.15 193.98 204.52 175.41 191.99"/><rect class="cls-9" x="207.01" y="118.29" width="17.54" height="3.22" rx="1.37"/><path class="cls-14" d="M328.15,29.54s2.31-5.29,7.32-4.41,5,4.95,5,4.95l2.54,1L377,31l.08,34.6-43.53.23s-5-1.92-5.17-6S328.15,29.54,328.15,29.54Z"/><polyline class="cls-9" points="334.88 65.81 377.11 65.81 377.11 31.06 340.65 31.06"/><path class="cls-9" d="M334.71,65.81a5.94,5.94,0,1,1,5.94-5.94V31.06a5.94,5.94,0,0,0-11.88,0V59.87"/><rect class="cls-11" x="367.97" y="33.97" width="1.72" height="7.06" transform="translate(656.15 -196.79) rotate(135)"/><rect class="cls-11" x="367.97" y="33.97" width="1.72" height="7.06" transform="translate(603.12 324.82) rotate(-135)"/><rect class="cls-11" x="346.82" y="43.29" width="1.72" height="7.06" transform="translate(626.64 -165.92) rotate(135)"/><rect class="cls-11" x="346.82" y="43.29" width="1.72" height="7.06" transform="translate(560.42 325.77) rotate(-135)"/><rect class="cls-15" x="360.79" y="58.14" width="6.4" height="3.58"/><rect class="cls-15" x="367.18" y="58.14" width="3.46" height="3.58"/><path class="cls-15" d="M370.64,57.75l-2.5-2.39a1.63,1.63,0,0,1,2.69-.31A1.81,1.81,0,0,1,370.64,57.75Z"/><path class="cls-15" d="M368.14,55.36H362s-.21-1,1.5-1.2h5.83a2.5,2.5,0,0,1,1,.48"/><line class="cls-15" x1="362.05" y1="55.42" x2="364.66" y2="57.92"/><path class="cls-16" d="M363.35,37.88s-.49-.34-1.27-.79"/><path class="cls-17" d="M359,35.53c-2.43-1-5.28-1.59-6.85.07s-.54,2.95.06,4.58"/><path class="cls-16" d="M352.52,41.89a4.23,4.23,0,0,1-.26,1.47"/><path class="cls-18" d="M347.16,51.2s-2.88,7.55,1.7,8.73,5.64-17.53,14.8-14.46c0,0,3.53.61,3.52,6.15"/><circle class="cls-1" cx="264.34" cy="87.29" r="6.07"/><circle class="cls-1" cx="289.96" cy="75.34" r="10.15"/></g><g id="farbe-3" data-name="farbe"><path class="cls-11" d="M169.41,99.63l-5.34,8.57a38.07,38.07,0,0,0,10.78,4c3.29-2.19,10-4,14.14-3.41A26.71,26.71,0,0,1,201.55,115c18,.28,24.08-2.17,24.08-2.17l13.35-6-4.36-7.17Z"/><path class="cls-19" d="M169.8,91.53h64.78l11.67-22.35a106.24,106.24,0,0,0-37.81-6.46c-20.79.42-25.57,1-25.57,1l-11.81,1.55-14.75,3.37Z"/><rect class="cls-14" x="169.61" y="91.06" width="64.77" height="8.48"/></g><g id="kontur-3" data-name="kontur"><path class="cls-9" d="M169.6,99.49h65.12v-8.1H169.6S169.41,99.68,169.6,99.49Z"/><path class="cls-9" d="M169.6,91.39,156.4,69s11.38-6.36,45.52-6.36,44.75,6.75,44.75,6.75l-11.95,22Z"/><path class="cls-9" d="M201.45,115C231,115,239,106.84,239,106.84l-4.31-7.35"/><path class="cls-9" d="M169.07,100.55l-4.88,7.08s2.61,2.5,10.62,4.59"/><line class="cls-16" x1="198.34" y1="72.39" x2="205.05" y2="72.39"/><line class="cls-16" x1="201.7" y1="86.04" x2="201.7" y2="69.89"/><path class="cls-16" d="M209.91,78.26a8.22,8.22,0,0,1-16.43,0"/><polyline class="cls-16" points="195.4 79.28 193.48 77.24 191.56 79.28"/><polyline class="cls-16" points="211.83 79.36 209.91 77.33 207.99 79.36"/><circle class="cls-16" cx="201.7" cy="68.03" r="1.79"/></g></svg>