<svg xmlns="http://www.w3.org/2000/svg" viewBox="0 0 364.74 276.39"><defs><style>.cls-1{fill:#d4e4f6;}.cls-2{fill:#f9b998;}.cls-3{fill:#fff;}.cls-4{fill:#82b1ea;}.cls-5{fill:#bbeaff;}.cls-6{fill:#b3d1ef;}.cls-13,.cls-14,.cls-7{fill:none;}.cls-10,.cls-11,.cls-12,.cls-14,.cls-15,.cls-7,.cls-9{stroke:#3666a5;}.cls-10,.cls-11,.cls-12,.cls-13,.cls-14,.cls-15,.cls-7,.cls-9{stroke-linecap:round;stroke-linejoin:round;}.cls-7{stroke-width:1.92px;}.cls-15,.cls-8{fill:#3666a5;}.cls-9{fill:#d3a1ac;stroke-width:1.94px;}.cls-10{fill:#ffe098;}.cls-10,.cls-11,.cls-12{stroke-width:2.1px;}.cls-11{fill:#ffdad2;}.cls-12{fill:#86e6e4;}.cls-13{stroke:#82b1ea;stroke-width:3.94px;}.cls-14,.cls-15{stroke-width:1.33px;}</style></defs><g id="kontur-2" data-name="kontur"><path class="cls-1" d="M33.89,100.6s-.37-7.94,1.1-10,2.41-3.51,3.7-3.88a37.56,37.56,0,0,1,5.17-.55l1-2.89-.35-10.1-5.22.35-.17-23,11.14-.17V64.68l11.5-.52.34-14.11,10.63.7S72.18,71.82,72.36,73s-7,.87-7,.87v12s6.1-.87,8.36,1.91,2.44,3.49,2.79,4.88-.35,41.45-.35,41.45l67.22.34-.52-32-5-.35-.7-12.54-9.23-.34s-8.18,8.88-11.14-3.66c0,0,.17-3.55,2.87-4.5s3.79-2,5.54-.81,3,2,3.38,2.3,8.11-.54,8.11-.54l.81-12.57,5.67.14.54-12.43s2.16-3.92,5.81-4.46,14.59-.27,14.59-.27l-.27-6.89a6.59,6.59,0,0,1,4.59-2.43c3.25-.4,2.16-.54,2.16-.54l31.08.68s2.7.54,3,1.75a80.22,80.22,0,0,1,0,8.11s12.83-.27,14.59.13,6.35,4.46,6.35,4.46l.13,7.84v4.32l5.54-.14.54,12.7,8.78.41a5.71,5.71,0,0,1,5.27-3.11c3.92,0,6,2.43,6,5.94s-1.35,5.75-5.75,5.75-6.28-1.69-6.28-1.69l-8-.14-.67,12.3-5.95.27-.27,32.55,27.61.55V270.2H118.09V177.44H39.47s-6.17-4-6-9.59S33.89,100.6,33.89,100.6Z"/><path class="cls-2" d="M170,42.58h29.59l-1-1L198.37,25s-3-6.37-6.55-6.72-14.92,0-14.92,0-3.76,1.92-4.63,3.84a31.92,31.92,0,0,0-1.83,5.15C170.44,27.65,170,42.58,170,42.58Z"/><path class="cls-3" d="M159.77,95.33h46.75s-2.41,11.23-16.25,14S168,106.76,168,106.76,160.17,100.54,159.77,95.33Z"/><path class="cls-2" d="M171.61,102.35H202.3a20.75,20.75,0,0,1-17.74,8.18c-11.81-.63-16.56-3.77-16.56-3.77l-4.29-4.64Z"/><path class="cls-4" d="M122.72,79.71,128,81.39l8.67.64.81-12.57,5.67.14.59,33.77-2.89-1.32-3,.07-.7-12.54-9.23-.34S124,92.8,121,91.12s-4.8-2.64-3.84-6.48S120.55,80,122.72,79.71Z"/><path class="cls-4" d="M246.05,79.71l-5.28,1.68L232.1,82l-.81-12.57-5.67.14L225,103.37l2.88-1.32,3,.07.7-12.54,9.23-.34s3.87,3.56,6.87,1.88,4.81-2.64,3.85-6.48S248.21,80,246.05,79.71Z"/><polygon class="cls-4" points="44.12 85.46 44.49 73.21 40.09 73.6 39.23 68.59 39.1 50.58 50.24 50.4 50.24 64.68 61.73 64.16 62.08 50.05 72.71 50.75 72.36 73.04 65.39 73.91 65.39 85.93 44.12 85.46"/><polygon class="cls-5" points="33.82 101.25 76.53 100.97 76.53 113.68 33.82 113.59 33.82 101.25"/><polygon class="cls-5" points="89.47 134.5 102.61 134.5 102.61 176.27 89.78 176.27 89.47 134.5"/><path class="cls-4" d="M38.19,150.33s11.06,1.7,15.23,7.23,6.32,8,6.55,11.28,1.13,8,1.13,8l-20.66.23s-5-1.47-6.09-6,0-21.33,0-21.33Z"/><path class="cls-6" d="M140.66,167s.7-4,4.4-4.75,12.13-.7,12.13-.7l68.06-.17s4.57,1.58,5.63,4.39.7,10.2.7,10.2l-.35,64.37s0,2.64-3.52,4.57-9,2.11-9,2.11l-71.05-.35s-7.91-2.82-7.91-7.21S140.66,167,140.66,167Z"/><path class="cls-5" d="M158.38,174.05l60.86-.08s2.25,2.26,2.25,4.52S221,209,221,209s.23,3.38-4.74,3.38-61.39-.45-61.39-.45-4.29.23-4.51-5.87,0-28.89,0-28.89S150.57,173.9,158.38,174.05Z"/><path class="cls-7" d="M150.61,52.7h67.13A7.27,7.27,0,0,1,225,60v74.4a0,0,0,0,1,0,0H143.33a0,0,0,0,1,0,0V60A7.27,7.27,0,0,1,150.61,52.7Z"/><rect class="cls-7" x="118.04" y="134.38" width="134.82" height="136"/><path class="cls-7" d="M76.34,134.31V93.62a7.55,7.55,0,0,0-7.56-7.56H41.51A7.55,7.55,0,0,0,34,93.62v75.52a7.55,7.55,0,0,0,7.56,7.56H118V134.31Z"/><rect class="cls-7" x="44.56" y="73.64" width="21.16" height="12.42"/><polygon class="cls-7" points="62.1 50.55 62.1 64.78 49.78 64.78 49.78 50.55 39.25 50.55 39.25 64.78 39.25 73.64 49.78 73.64 62.1 73.64 72.63 73.64 72.63 64.78 72.63 50.55 62.1 50.55"/><path class="cls-7" d="M167.32,42.95H201a3.47,3.47,0,0,1,3.47,3.47V52.7a0,0,0,0,1,0,0H163.85a0,0,0,0,1,0,0V46.42A3.47,3.47,0,0,1,167.32,42.95Z"/><path class="cls-7" d="M180,18.09h8.93a9.6,9.6,0,0,1,9.6,9.6V42.95a0,0,0,0,1,0,0H170.39a0,0,0,0,1,0,0V27.69A9.6,9.6,0,0,1,180,18.09Z"/><rect class="cls-7" x="225.14" y="69.78" width="6.15" height="32.27"/><polyline class="cls-7" points="240.36 89.79 231.29 89.79 231.29 82.29 240.36 82.29"/><rect class="cls-7" x="137.29" y="69.78" width="6.15" height="32.27" transform="translate(280.72 171.82) rotate(180)"/><polyline class="cls-7" points="128.12 82.04 137.29 82.04 137.29 89.53 128.12 89.53"/><circle class="cls-8" cx="170.25" cy="78.03" r="4.45"/><circle class="cls-8" cx="196.07" cy="78.03" r="4.45"/><path class="cls-7" d="M183.16,110.75c12.53,0,22.68-7.07,22.68-15.78H160.49C160.49,103.68,170.64,110.75,183.16,110.75Z"/><circle class="cls-7" cx="122.78" cy="85.78" r="6.2"/><circle class="cls-7" cx="245.8" cy="86.04" r="6.2"/><line class="cls-7" x1="163.41" y1="102.05" x2="202.45" y2="102.05"/><path class="cls-7" d="M182.25,22.06s-6.65-.54-6.65,6.24V43"/><line class="cls-7" x1="192.62" y1="32.5" x2="192.62" y2="42.95"/><line class="cls-7" x1="33.95" y1="100.9" x2="75.99" y2="100.9"/><line class="cls-7" x1="33.95" y1="113.62" x2="75.99" y2="113.62"/><line class="cls-7" x1="102.39" y1="134.38" x2="102.39" y2="176.43"/><line class="cls-7" x1="89.67" y1="134.38" x2="89.67" y2="176.43"/><path class="cls-7" d="M34,149.64A27.07,27.07,0,0,1,61,176.7"/><rect class="cls-7" x="140.36" y="161.45" width="90.93" height="85.56" rx="8.49"/><rect class="cls-7" x="150.47" y="173.78" width="70.59" height="38.3" rx="4.46"/><rect class="cls-9" x="149.58" y="232.63" width="71.1" height="6.24"/><rect class="cls-10" x="150.47" y="218" width="20.24" height="8.6" rx="3.96"/><rect class="cls-11" x="200.82" y="218" width="20.24" height="8.6" rx="3.96"/><rect class="cls-12" x="175.71" y="218" width="20.24" height="8.6" rx="3.96"/><path class="cls-1" d="M238.51,135.06l.17,46.75-43.22.81s-2.73,1-3.54,2.57a49.08,49.08,0,0,0-1.92,5.3l-5.95-1.93-1.12-13.17s.48-3-.81-3.54-5.78.16-6.1,1.13S175.7,189,175.7,189l-12.53.65s-2.89,1.76-3.54,3.69S159,208.8,159,208.8s-.8,4,1.13,5.79a15,15,0,0,0,5.78,3.21c1.28.32,25.06-.16,25.06-.16s-.16,5.46,2.73,6.43,28,.8,28,.8h53s2.57.16,4.66-3.53,1.61-8.84,1.61-8.84V143.1s.32-9-8-9S238.51,135.06,238.51,135.06Z"/><path class="cls-4" d="M189.94,189.67l-5.73-.24L183.12,178s-.12-5.48-2.07-5.6-4.45-1.6-5,.6S175.7,189,175.7,189s-7.69-.1-11,.76-4.22,1.57-5.1,3.58-.51,17-.51,17-1.46,4.87,1.59,5.85a57.42,57.42,0,0,0,9,1.82c.61,0,21.24-.41,21.24-.41Z"/><polygon class="cls-5" points="206.89 182.59 219.68 183.52 219.58 224.77 206.69 224.66 206.89 182.59"/><polygon class="cls-5" points="238.5 162.22 281.01 162.41 281.11 150 239.43 150.09 238.5 162.22"/><path class="cls-4" d="M252.91,224.11s2.79-16.19,7.6-19.43,7.48-4.91,11.83-5.7,8.83-1.22,8.83-1.22-.9,22.44-1,23.23-2.23,2.9-3.35,3.35a40.17,40.17,0,0,1-5.92.78Z"/><path class="cls-7" d="M238.72,134.38v48.1H197.87a7.39,7.39,0,0,0-7.39,7.4v27.6a7.39,7.39,0,0,0,7.39,7.4h75.85a7.4,7.4,0,0,0,7.4-7.4v-75a8.13,8.13,0,0,0-8.13-8.14Z"/><path class="cls-7" d="M166.1,189.26h24.37a0,0,0,0,1,0,0V218a0,0,0,0,1,0,0H166.1a7,7,0,0,1-7-7V196.21A7,7,0,0,1,166.1,189.26Z"/><path class="cls-7" d="M178.52,172.47h2.05a2.82,2.82,0,0,1,2.82,2.82v14a0,0,0,0,1,0,0h-7.69a0,0,0,0,1,0,0v-14A2.82,2.82,0,0,1,178.52,172.47Z"/><line class="cls-7" x1="219.56" y1="182.6" x2="219.56" y2="224.65"/><line class="cls-7" x1="206.84" y1="182.6" x2="206.84" y2="224.65"/><line class="cls-7" x1="281.12" y1="162.83" x2="239.07" y2="162.83"/><line class="cls-7" x1="281.12" y1="150.12" x2="239.07" y2="150.12"/><path class="cls-7" d="M252.86,224.65a27.07,27.07,0,0,1,27.06-27.06"/></g><g id="farbe-3" data-name="farbe"><path class="cls-3" d="M177.5,4.52c.33.49,22.47.33,28.71,4.1a39.22,39.22,0,0,1,11.64,10.17,35.21,35.21,0,0,1,4.43,7.88l9.85.16-7.06,28.71-81.53.33L136,27l8.36-.65s8.7-14.11,17.06-16.73S177.5,4.52,177.5,4.52Z"/><line class="cls-13" x1="139.42" y1="32.46" x2="229.42" y2="32.46"/><line class="cls-13" x1="142.81" y1="49.9" x2="224.33" y2="49.9"/></g><g id="kontur-3" data-name="kontur"><line class="cls-14" x1="182.23" y1="38.58" x2="185.9" y2="38.58"/><line class="cls-14" x1="184.06" y1="46.06" x2="184.06" y2="37.22"/><path class="cls-14" d="M188.56,41.8a4.5,4.5,0,0,1-9,0"/><polyline class="cls-14" points="180.62 42.35 179.57 41.24 178.52 42.35"/><polyline class="cls-14" points="189.61 42.4 188.56 41.29 187.51 42.4"/><circle class="cls-15" cx="184.06" cy="36.2" r="0.98"/><polygon class="cls-7" points="232.34 26.55 135.88 26.55 142.96 55.63 225.26 55.63 232.34 26.55"/><path class="cls-7" d="M144.75,26.55s5.59-21.48,39.36-21.48c32.42,0,38.78,21.48,38.78,21.48"/></g></svg>