<svg xmlns="http://www.w3.org/2000/svg" viewBox="0 0 364.29 276.05"><defs><style>.cls-1{fill:#d4e4f6;}.cls-10,.cls-2,.cls-3,.cls-4{fill:none;stroke:#3666a5;}.cls-2,.cls-3,.cls-4{stroke-linecap:round;stroke-linejoin:round;}.cls-2{stroke-width:2.18px;}.cls-3{stroke-width:1.09px;}.cls-10,.cls-4{stroke-width:1.92px;}.cls-5{fill:#86e6e4;}.cls-6{fill:#ffdad2;}.cls-7{fill:#d99fa2;}.cls-8{fill:#e9f1fa;}.cls-9{fill:#3666a5;}.cls-10{stroke-miterlimit:10;}.cls-11{fill:#82b1ea;}.cls-12{fill:#968fc2;}.cls-13{fill:#d3a1ac;}</style></defs><g id="kontur-2" data-name="kontur"><path class="cls-1" d="M186.36,37.36s.13-4.28,3.55-5,12.24,0,12.24,0l75.37-.73s42.58-.37,43.93.49,2.93,3.79,3.06,4.4,0,8.2,0,8.2l-.37,65.58a6.36,6.36,0,0,1-2.33,4c-2.08,1.59-27.28,1.47-27.28,1.47H191.87s-3.79.49-4.53-2.69-1.34-17-1.34-17Z"/><line class="cls-2" x1="289.33" y1="63.52" x2="300.92" y2="63.52"/><line class="cls-2" x1="295.13" y1="87.11" x2="295.13" y2="59.21"/><path class="cls-2" d="M309.32,73.66a14.19,14.19,0,0,1-28.38,0"/><polyline class="cls-2" points="284.25 75.42 280.94 71.9 277.62 75.42"/><polyline class="cls-2" points="312.63 75.57 309.32 72.05 306 75.57"/><circle class="cls-2" cx="295.13" cy="55.99" r="3.1"/><circle class="cls-2" cx="217.15" cy="72.21" r="13.46"/><circle class="cls-2" cx="217.15" cy="72.21" r="4.37"/><line class="cls-2" x1="217.15" y1="58.75" x2="217.15" y2="67.84"/><line class="cls-2" x1="207.63" y1="62.69" x2="214.06" y2="69.12"/><line class="cls-2" x1="203.69" y1="72.21" x2="212.78" y2="72.21"/><line class="cls-2" x1="207.63" y1="81.73" x2="214.06" y2="75.3"/><line class="cls-2" x1="217.15" y1="85.67" x2="217.15" y2="76.58"/><line class="cls-2" x1="226.67" y1="81.73" x2="220.24" y2="75.3"/><line class="cls-2" x1="230.61" y1="72.21" x2="221.52" y2="72.21"/><line class="cls-2" x1="226.67" y1="62.69" x2="220.24" y2="69.12"/><rect class="cls-3" x="215.99" y="52.03" width="2.32" height="3.81" rx="1.16"/><rect class="cls-3" x="203.07" y="57.38" width="2.32" height="3.81" rx="1.16" transform="translate(17.9 161.78) rotate(-45)"/><rect class="cls-3" x="197.72" y="70.3" width="2.32" height="3.81" rx="1.16" transform="translate(126.67 271.09) rotate(-90)"/><rect class="cls-3" x="203.07" y="83.22" width="2.32" height="3.81" rx="1.16" transform="translate(288.45 289.74) rotate(-135)"/><rect class="cls-3" x="215.99" y="88.57" width="2.32" height="3.81" rx="1.16" transform="translate(434.31 180.96) rotate(-180)"/><rect class="cls-3" x="228.91" y="83.22" width="2.32" height="3.81" rx="1.16" transform="translate(452.96 -17.36) rotate(135)"/><rect class="cls-3" x="234.27" y="70.3" width="2.32" height="3.81" rx="1.16" transform="translate(307.63 -163.22) rotate(90)"/><rect class="cls-3" x="228.91" y="57.38" width="2.32" height="3.81" rx="1.16" transform="translate(109.31 -145.32) rotate(45)"/><line class="cls-2" x1="242.36" y1="97.86" x2="271.69" y2="97.86"/><line class="cls-2" x1="246.27" y1="63.76" x2="267.78" y2="63.76"/><line class="cls-2" x1="246.27" y1="53.86" x2="267.78" y2="53.86"/><polygon class="cls-2" points="267.78 97.86 246.03 97.86 249.75 63.76 264.06 63.76 267.78 97.86"/><path class="cls-2" d="M256.92,47.19h0a7.17,7.17,0,0,1,7.17,7.17v9.4a0,0,0,0,1,0,0H249.75a0,0,0,0,1,0,0v-9.4A7.17,7.17,0,0,1,256.92,47.19Z"/><line class="cls-2" x1="256.91" y1="53.86" x2="256.91" y2="63.25"/><line class="cls-2" x1="249.1" y1="69.74" x2="264.08" y2="69.74"/><line class="cls-2" x1="248.38" y1="77.04" x2="264.8" y2="77.04"/><line class="cls-2" x1="247.66" y1="84.33" x2="265.52" y2="84.33"/><line class="cls-2" x1="246.94" y1="91.62" x2="266.24" y2="91.62"/><rect class="cls-4" x="186.05" y="32.02" width="138.27" height="83.28" rx="5.87"/><path class="cls-5" d="M92.49,101.58l-19.38.2s-7.52,2.15-9.67,7.88-1.55,16.47-1.55,16.47v52.62h0l.6-.21,71.89-.18L135.47,127l15.43,14.52,4.54.73,5.26-3.09,24.7-20.7-9.29-12.27-21.46,15.06-18.16-17.79-6.72-1.52-10.61-.21-13.22,7.36-13-7.43"/><path class="cls-6" d="M92.52,89.64l0,11.94,13.45,7.5,13.22-7.36.2-12.34s4.56-5.06,5.69-10.13,1.27-21.14.64-22.53S124,52,124,52s-31.78-1.14-32.16-.88-6.71,14.94-6.71,14.94l.64,1.14-1.9,2L84.29,77l1.14,2.4,2.66.25S90.62,88.12,92.52,89.64Z"/><path class="cls-6" d="M198.23,100.28a4.47,4.47,0,0,0-.68-.61,22.33,22.33,0,0,0,.29-2.74c0-.77-1-1.54-2.2-2.12s-1.83-.47-3.46.77c-.89.69-.92,2.21-.76,3.49l-.2.06a64.43,64.43,0,0,0-5.95,2.79c-.57.38-3.83,3.74-3.83,3.74s-2.79,2.3-3.27,2.59l6.43,7.67,3.74-2.4,4.71-3.74s5.08-1.44,5.66-1.82S200,104.89,200,104A6.18,6.18,0,0,0,198.23,100.28Z"/><path class="cls-7" d="M94,53.3l-.16,9S90.06,63.59,89.91,65a6.48,6.48,0,0,1-.86,2.49l-3.24-.25s-3.7-15.72,2.07-19.93,8.65-6.55,16.44-6.55,9.2.31,10.91,1.56,5.77,4.21,6.24,5.07,2.1,4.28,2.1,4.28l.63,1.79Z"/><polygon class="cls-8" points="197.84 96.93 218.61 81.41 235.15 69.5 237.93 72.46 199.53 101.24 198.1 98.71 197.84 96.93"/><path class="cls-4" d="M105.53,81.33l1.39.35a14.26,14.26,0,0,0,7,0l1.38-.35"/><rect class="cls-4" x="185.52" y="96.21" width="11.72" height="17.53" rx="5.86" transform="translate(210.28 -112.49) rotate(66.22)"/><path class="cls-4" d="M88.1,80c2.15,8.42,8.81,14.39,17.81,14.39h0a19.4,19.4,0,0,0,19.37-18.3l.79-14a20.19,20.19,0,0,0-20.16-21.34h0C94.3,40.73,83.17,45,85.1,62.27l.84,4.65"/><path class="cls-4" d="M76.79,127.48v51.27H135v-51.2a.6.6,0,0,1,1-.44l13.26,13.47a6.51,6.51,0,0,0,8,.61l28.58-23-9.76-12.3-21.08,16-15-15.3a16.68,16.68,0,0,0-11.93-5h-9"/><line class="cls-4" x1="92.77" y1="101.58" x2="76.79" y2="101.58"/><path class="cls-4" d="M88.86,67.27a8.34,8.34,0,0,1,4.71-5.67V53.08h30.55"/><path class="cls-4" d="M89.2,68.18a3.39,3.39,0,0,0-2.83-.86h0a3.4,3.4,0,0,0-2.82,3.87l.89,5.94A3.4,3.4,0,0,0,88.31,80h0a3.82,3.82,0,0,0,1.9-.93"/><polyline class="cls-4" points="119.33 88.99 119.33 101.58 105.91 109.81 92.49 101.58 92.49 88.31"/><circle class="cls-9" cx="118.82" cy="68.73" r="1.81"/><circle class="cls-9" cx="103.14" cy="68.73" r="1.81"/><path class="cls-4" d="M106.59,64.84s-3.48-3.42-6.9,0"/><path class="cls-10" d="M115.37,64.84s3.48-3.42,6.9,0"/><line class="cls-4" x1="108.52" y1="85.13" x2="111.91" y2="85.13"/><polyline class="cls-4" points="113.92 69.15 113.92 78.31 108.85 78.31"/><path class="cls-4" d="M76.79,101.58h0a14.89,14.89,0,0,0-14.9,14.89v62.28h14.9"/><polyline class="cls-4" points="105.91 109.81 100.92 114.22 82.2 101.58"/><polyline class="cls-4" points="106.04 109.81 111.02 114.22 129.75 101.58"/><line class="cls-4" x1="177.95" y1="108.17" x2="182.93" y2="104.43"/><path class="cls-4" d="M191.45,98.18a2.55,2.55,0,0,1-.1-1.36h0a2.49,2.49,0,0,1,2.52-2l2.28.36a2.49,2.49,0,0,1,1.74,2.73h0c-.07.43,0,.43-.22.75"/><polyline class="cls-4" points="199.56 101.33 238.04 72.02 235.64 68.87 198.72 96.99"/><line class="cls-4" x1="184.15" y1="115.82" x2="189.17" y2="112.03"/><path class="cls-11" d="M6.79,264h91l1.59-52.65s6.93,32.46,8.11,34,3,4.56,6.93,5.35,46.71,1.38,46.71,1.38v-22l-28.7.6s-6.33-2-6.73-6.93S119,193.35,119,193.35s-3-17.42-16.82-20S79,172.77,79,172.77l-54.82-.2a15.92,15.92,0,0,0-14.45,9.7,47.91,47.91,0,0,0-4,20.18Z"/><path class="cls-6" d="M43.48,151.67l33.61-40.74,10.79.87s.7,5.58.7,7.84-.7,23.5-1.57,26.46-6.09,6.62-6.79,7.49-2.61,18.63-2.61,18.63-9,5.74-17.76,5.74S42.61,172,42.61,172Z"/><path class="cls-6" d="M161.47,234.36s-.6,18.4-.3,17.77,25.63-1,25.63-1-3.13-9-8-11S161.47,234.36,161.47,234.36Z"/><path class="cls-12" d="M43.48,151.67l23.26.13L72.31,141a8.13,8.13,0,0,1-2-6.71c.46-4.43,1.14-10.34,2-10.8s3.86.34,3.86.34l1-9.43,11.71-.12S82.09,92.91,65.49,93,42,102.92,42,102.92s-3.64,8.86-4,10.57-.34,10.8-.23,14.32,1.59,14.55,1.59,14.55Z"/><rect class="cls-1" x="107.97" y="251.21" width="127.1" height="13.41"/><path class="cls-13" d="M248.17,179.65a17.63,17.63,0,0,1,5.33-4.27c2.93-1.33,7.73-2.66,9.33-2.66s10.14-.27,10.14-.27l67.73.8s7.2,1.6,9.86,5.6,4.27,4.53,5.34,9.07S357,205.25,357,205.25l-.26,59.46-113.33-.53.8-74.93S245.77,180.18,248.17,179.65Z"/><path class="cls-6" d="M275.77,112.83l12.1,10,1.32,21.56-2.37,8.42-5.26.26S269.73,147.55,275.77,112.83Z"/><path class="cls-12" d="M275.77,112.83s6.51,3.45,7.76,10.33,1.46,23.56,1.46,24.6-6.67,36.07-6.67,36.07a25.85,25.85,0,0,0,10.42,4c6.46,1,14.8,2.08,17.51,1.67s15.43-2.5,18.14-3.13a23.21,23.21,0,0,0,6.26-3.13s3.12-52.33-4.17-70S304.79,91.68,299.79,92.3,277,100.84,275.77,112.83Z"/><path class="cls-4" d="M79.88,153.28c6.39-.15,8.14-9.83,8.28-16.13.09-4.39.58-17.72.58-17.72.82-14.54-11.56-26.65-26.13-26.65h0a25.35,25.35,0,0,0-25.3,26.79l1,17.6a24.22,24.22,0,0,0,5.83,14.47c4.9-.09,15.54-.71,23.82.16l5-11.68"/><path class="cls-4" d="M77.58,172.23H94.27c12.52,0,20.12,5.77,24.9,21.09l7.49,31.61a7.38,7.38,0,0,0,7.19,5.69H160.9v21H118.58a11.4,11.4,0,0,1-11.08-8.72L98.78,207v57.33H26.46V206.86"/><line class="cls-4" x1="42.27" y1="172.23" x2="26.46" y2="172.23"/><path class="cls-4" d="M75.19,139.17a3,3,0,0,1-1.94.78h0c-1.76,0-3.14-2.13-3.07-4.62l.27-8c.07-2.49,1.56-4.49,3.32-4.44h0a3,3,0,0,1,2.47,1.8l.64-10.18H87.61"/><path class="cls-4" d="M79.64,153.18l-1.86,19s-6.24,4.92-17.94,4.92-18-4.92-18-4.92l1.85-21.07"/><path class="cls-4" d="M26.46,172.23h0A19.91,19.91,0,0,0,6.54,192.14v72.15H26.46"/><path class="cls-4" d="M283.35,153.28c-6.4-.15-8.15-9.83-8.29-16.13-.09-4.39-.58-17.72-.58-17.72-.82-14.54,11.57-26.65,26.13-26.65h0c14.56,0,24.25,13.23,26.11,21.89"/><polyline class="cls-4" points="264.45 206.96 264.45 264.29 336.76 264.29 336.76 206.86"/><path class="cls-4" d="M279.17,172.23H269c-19.1,0-24.9,8.18-24.9,24.35l-.83,67.71h21.23"/><line class="cls-4" x1="331.69" y1="172.32" x2="336.76" y2="172.23"/><path class="cls-4" d="M336.76,172.23h0a19.91,19.91,0,0,1,19.92,19.91v72.15H336.76"/><path class="cls-4" d="M160.91,234.22s24.43,3.72,25.56,17.41H160.9"/><rect class="cls-4" x="108.27" y="251.63" width="127.35" height="12.66"/><path class="cls-4" d="M275.48,112.59s21.52,3.53,1.92,72.24c0,0,29.87,11.25,53.08-1.33,0,0,5.3-67.1-10.66-81.65"/></g></svg>