<svg xmlns="http://www.w3.org/2000/svg" viewBox="0 0 335.38 254.14"><defs><style>.cls-1,.cls-7{fill:#daa5bc;}.cls-2{fill:#ffdad2;}.cls-3{fill:#86e6e4;}.cls-4{fill:#d99fa2;}.cls-10,.cls-11,.cls-4,.cls-5,.cls-7{stroke:#3666a5;}.cls-4,.cls-7{stroke-miterlimit:10;}.cls-4,.cls-5,.cls-7{stroke-width:1.92px;}.cls-10,.cls-5,.cls-9{fill:none;}.cls-10,.cls-11,.cls-5,.cls-9{stroke-linecap:round;stroke-linejoin:round;}.cls-11,.cls-6{fill:#3666a5;}.cls-8{fill:#fff;}.cls-9{stroke:#82b1ea;stroke-width:2.97px;}</style></defs><g id="kontur-2" data-name="kontur"><polygon class="cls-1" points="105.94 110.54 151 120.33 149.66 126.95 147.25 138.89 146.61 142.04 101.17 132 105.94 110.54"/><path class="cls-2" d="M137,124.46s-.57-1.14,2.62-.57,9.12,1.14,11.73,3.19,10,16.06,10,16.06l-9.8,10.93-15.83-8.43s-10.25-2.16-10.94-4.78a10.8,10.8,0,0,0-1.59-3.76L146.61,142l.23-2.55s-1.94-4.44-1.94-6.15.46-1.82-1.59-2.85S134.54,127.87,137,124.46Z"/><path class="cls-3" d="M149.79,157.22l14.44-17.5,30.39,22.86s20.31-20.18,21.46-22,7.28-6.13,10.21-6.64l14.31-.76,4.47.25,47.89-.38s13.66-.51,20.56,1.4,11.88,8.56,12.77,11,3.19,14.17,2.55,21.58-1.27,77.39-1.27,77.39H223.48l-.38-74.2-1.28-.13S202.67,192,197.69,191.82s-5.11-.51-11.12-5.36S149.79,157.22,149.79,157.22Z"/><path class="cls-2" d="M245.53,116.05l1.24,18,18.17,11.11L284,132.89l.41-18.58s5.89-9.13,6.39-11.7c0,0,5.14.42,5.72-8.13s.25-7.21.25-7.21l-1.49-3-.91-3.57,1.16-8.46H235.74L238,102s2.08,6,3.9,8.54S245.53,116.05,245.53,116.05Z"/><path class="cls-4" d="M282.57,73.53s.32-1.64.65-1.75,12.33.47,12.33.47L294,84h-4.15s-3.25-5.66-6.44-7.86A1.91,1.91,0,0,1,282.57,73.53Z"/><path class="cls-5" d="M295.33,72.35a35,35,0,0,1-.27,4.31l-.55,7.21"/><path class="cls-5" d="M290.74,102.19c-3.1,12.12-12.68,20.72-25.64,20.72h0a27.93,27.93,0,0,1-27.89-26.34l-1.14-20.2a28,28,0,0,1,.07-4.3"/><path class="cls-5" d="M307,170.54v73.82H223.17V170.65a.86.86,0,0,0-1.44-.63L202.64,189.4a9.35,9.35,0,0,1-11.53.89L150,157.22l14-17.72,30.36,23,21.55-22a24,24,0,0,1,17.17-7.23H246"/><line class="cls-5" x1="284.01" y1="133.25" x2="307.03" y2="133.25"/><path class="cls-5" d="M289.64,83.86c-1.82-6.43-6.78-8.17-6.78-8.17v-3"/><path class="cls-5" d="M289.16,85.18a4.88,4.88,0,0,1,4.07-1.25h0a4.9,4.9,0,0,1,4.06,5.58L296,98.06a4.89,4.89,0,0,1-5.58,4.06h0a5.58,5.58,0,0,1-2.73-1.34"/><polyline class="cls-5" points="245.77 115.13 245.77 133.25 265.1 145.1 284.42 133.25 284.42 114.15"/><circle class="cls-6" cx="245.57" cy="87.1" r="2.61"/><circle class="cls-6" cx="268.15" cy="87.1" r="2.61"/><path class="cls-5" d="M264.11,80.37s5-4.93,9.94,0"/><path class="cls-5" d="M251.48,80.37s-5-4.93-9.94,0"/><line class="cls-5" x1="261.34" y1="109.58" x2="256.46" y2="109.58"/><polyline class="cls-5" points="253.57 86.57 253.57 99.76 260.87 99.76"/><path class="cls-5" d="M307,133.25h0a21.44,21.44,0,0,1,21.44,21.45v89.66H307"/><polyline class="cls-5" points="265.1 145.1 272.27 151.46 299.24 133.25"/><polyline class="cls-5" points="264.91 145.1 257.74 151.46 230.78 133.25"/><path class="cls-5" d="M161,143.34l-7.24-13.5a7.61,7.61,0,0,0-5.39-3.9l-9.56-2.18a2.19,2.19,0,0,0-2.44,1.44h0a2.19,2.19,0,0,0,1.15,2.69l6.39,2.76a2.2,2.2,0,0,1,1.27,2.14c-.13,2.18.36,6.32,5.21,9.41"/><polyline class="cls-5" points="147.1 140.4 146.74 142.1 100.91 132.21 105.7 110.01 151.53 119.89 150.11 126.25"/><path class="cls-5" d="M151.35,154.23l-14.59-7.88s-14.43-4-12.92-8.89"/><line class="cls-5" x1="133.52" y1="139.45" x2="139.39" y2="142.17"/><path class="cls-5" d="M253,105.05l1.73.37a20.86,20.86,0,0,0,8.69,0l1.71-.37"/><rect class="cls-7" x="239.2" y="222.32" width="46.89" height="22.71" transform="translate(525.28 467.35) rotate(-180)"/><rect class="cls-7" x="192.31" y="222.32" width="46.89" height="22.71" transform="translate(431.51 467.35) rotate(-180)"/><rect class="cls-7" x="145.43" y="222.32" width="46.89" height="22.71" transform="translate(337.74 467.35) rotate(-180)"/><rect class="cls-7" x="98.54" y="222.32" width="46.89" height="22.71" transform="translate(243.97 467.35) rotate(-180)"/><rect class="cls-7" x="51.66" y="222.32" width="46.89" height="22.71" transform="translate(150.2 467.35) rotate(-180)"/><rect class="cls-7" x="4.77" y="222.32" width="46.89" height="22.71" transform="translate(56.43 467.35) rotate(-180)"/><rect class="cls-7" x="215.75" y="199.61" width="46.89" height="22.71" transform="translate(478.4 421.92) rotate(-180)"/><rect class="cls-7" x="168.87" y="199.61" width="46.89" height="22.71" transform="translate(384.62 421.92) rotate(-180)"/><rect class="cls-7" x="121.98" y="199.61" width="46.89" height="22.71" transform="translate(290.85 421.92) rotate(-180)"/><rect class="cls-7" x="75.1" y="199.61" width="46.89" height="22.71" transform="translate(197.08 421.92) rotate(-180)"/><rect class="cls-7" x="28.21" y="199.61" width="46.89" height="22.71" transform="translate(103.31 421.92) rotate(-180)"/><rect class="cls-7" x="4.77" y="199.61" width="23.44" height="22.71" transform="translate(32.98 421.92) rotate(-180)"/><rect class="cls-7" x="262.64" y="199.61" width="23.44" height="22.71" transform="translate(548.72 421.92) rotate(-180)"/><rect class="cls-7" x="239.2" y="176.89" width="46.89" height="22.71" transform="translate(525.28 376.5) rotate(-180)"/><rect class="cls-7" x="192.31" y="176.89" width="46.89" height="22.71" transform="translate(431.51 376.5) rotate(-180)"/><rect class="cls-7" x="98.54" y="176.89" width="46.89" height="22.71" transform="translate(243.97 376.5) rotate(-180)"/><rect class="cls-7" x="4.77" y="176.89" width="46.89" height="22.71" transform="translate(56.43 376.5) rotate(-180)"/><rect class="cls-7" x="194.03" y="131.47" width="46.89" height="22.71" transform="translate(434.95 285.65) rotate(-180)"/><rect class="cls-7" x="215.75" y="154.18" width="46.89" height="22.71" transform="translate(478.4 331.07) rotate(-180)"/><rect class="cls-7" x="168.87" y="154.18" width="46.89" height="22.71" transform="translate(384.62 331.07) rotate(-180)"/><rect class="cls-7" x="121.98" y="154.18" width="46.89" height="22.71" transform="translate(290.85 331.07) rotate(-180)"/><rect class="cls-7" x="4.77" y="154.18" width="23.44" height="22.71" transform="translate(32.98 331.07) rotate(-180)"/></g><g id="farbe-3" data-name="farbe"><path class="cls-8" d="M261.33,33.26c.25.37,16.94.25,21.63,3.09A29.63,29.63,0,0,1,291.74,44,26.85,26.85,0,0,1,295.08,50l7.41.12L297.18,71.7,235.75,72,230.06,50.2l6.3-.5s6.56-10.63,12.86-12.61S261.33,33.26,261.33,33.26Z"/><line class="cls-9" x1="232.64" y1="54.31" x2="300.45" y2="54.31"/><line class="cls-9" x1="235.2" y1="67.45" x2="296.62" y2="67.45"/></g><g id="kontur-3" data-name="kontur"><line class="cls-10" x1="255.31" y1="59.18" x2="258.07" y2="59.18"/><line class="cls-10" x1="256.69" y1="64.81" x2="256.69" y2="58.15"/><path class="cls-10" d="M260.08,61.6a3.39,3.39,0,1,1-6.78,0"/><polyline class="cls-10" points="254.09 62.02 253.3 61.18 252.51 62.02"/><polyline class="cls-10" points="260.87 62.06 260.08 61.22 259.28 62.06"/><circle class="cls-11" cx="256.69" cy="57.38" r="0.74"/><polygon class="cls-5" points="302.65 49.86 229.97 49.86 235.31 71.77 297.32 71.77 302.65 49.86"/><path class="cls-5" d="M236.66,49.86s4.21-16.19,29.65-16.19c24.43,0,29.22,16.19,29.22,16.19"/></g></svg>